<svg xmlns="http://www.w3.org/2000/svg" xmlns:xlink="http://www.w3.org/1999/xlink" viewBox="0 0 648.39 633"><defs><style>.cls-1,.cls-7{fill:none;}.cls-2{isolation:isolate;}.cls-3{clip-path:url(#clip-path);}.cls-4{mix-blend-mode:multiply;}.cls-5{clip-path:url(#clip-path-3);}.cls-6{fill:#66c7ea;}.cls-7{stroke:#fff;stroke-width:7.7px;}.cls-8{clip-path:url(#clip-path-4);}.cls-9{clip-path:url(#clip-path-5);}.cls-10{clip-path:url(#clip-path-6);}.cls-11{fill:#231f20;}.cls-12{fill:#fff;}</style><clipPath id="clip-path" transform="translate(-67 -9)"><rect class="cls-1" x="67" y="9" width="648.39" height="633"/></clipPath><clipPath id="clip-path-3" transform="translate(-67 -9)"><rect class="cls-1" x="58" y="2" width="452.82" height="442.82"/></clipPath><clipPath id="clip-path-4" transform="translate(-67 -9)"><rect class="cls-1" x="164.78" y="200.18" width="452.82" height="442.82"/></clipPath><clipPath id="clip-path-5" transform="translate(-67 -9)"><path class="cls-1" d="M284.41,226.42C284.41,344.36,380,440,498,440s213.56-95.62,213.56-213.56S615.92,12.85,498,12.85,284.41,108.47,284.41,226.42"/></clipPath><clipPath id="clip-path-6" transform="translate(-67 -9)"><rect class="cls-1" x="271.56" y="2" width="452.82" height="442.82"/></clipPath></defs><title>Windows of opportunity</title><g class="cls-2"><g id="Layer_1" data-name="Layer 1"><g class="cls-3"><g class="cls-3"><g class="cls-4"><g class="cls-5"><path class="cls-6" d="M284.41,440C402.36,440,498,344.36,498,226.42S402.36,12.85,284.41,12.85,70.85,108.47,70.85,226.42,166.46,440,284.41,440" transform="translate(-67 -9)"/><circle class="cls-7" cx="217.41" cy="217.41" r="213.56"/></g></g><g class="cls-4"><g class="cls-8"><path class="cls-6" d="M391.19,638.15c118,0,213.57-95.61,213.57-213.56S509.14,211,391.19,211,177.63,306.64,177.63,424.59s95.62,213.56,213.56,213.56" transform="translate(-67 -9)"/><circle class="cls-7" cx="324.19" cy="415.58" r="213.56"/></g></g></g><g class="cls-9"><g class="cls-4"><g class="cls-10"><path class="cls-6" d="M498,440c117.94,0,213.56-95.62,213.56-213.56S615.92,12.85,498,12.85,284.41,108.47,284.41,226.42,380,440,498,440" transform="translate(-67 -9)"/><circle class="cls-7" cx="430.98" cy="217.41" r="213.56"/></g></g></g><g class="cls-3"><circle class="cls-7" cx="430.98" cy="217.41" r="213.56"/><path class="cls-11" d="M251.7,194.35c0-1.47,1.57-2.32,3.07-2.32s3.11.42,3.11,2.23c0,1.4-1.43,1.59-2.67,2.24s-2.55,1.38-2.57,4.59l3.09,0a2.31,2.31,0,0,1,.89-2.17c1.36-.92,4.47-1.27,4.47-4.66s-3-4.94-6.27-4.94-6.23,1.55-6.25,5Zm.59,9.71a1.87,1.87,0,0,0,3.74,0,1.87,1.87,0,0,0-3.74,0m-13-5.36a3.11,3.11,0,0,1,3.23-2.24c1.63,0,2.8.75,3,2.24Zm9,2.37c.44-4.75-2-7.14-5.83-7.14a5.78,5.78,0,0,0-6.13,6c0,3.69,2.36,6.15,6.34,6.15a7.08,7.08,0,0,0,5-1.87l-1.82-1.8a4.77,4.77,0,0,1-3.09,1.07c-2,0-3.25-1-3.44-2.45Zm-15.52-6.81-1.59,3.86-1.75,4.82-1.78-4.87L226,194.26h-3.11l4.93,11.6h3.09l4.92-11.6ZM218.19,191a1.69,1.69,0,0,0,3.37,0,1.69,1.69,0,0,0-3.37,0m3.11,14.79h-2.86V194.23h2.86Zm-11-14.49v3h-2.16v2.46h2.16v5c0,2.88,1.63,4.31,4.14,4.22a6.68,6.68,0,0,0,2.36-.49L216,203a3.32,3.32,0,0,1-1.38.35,1.43,1.43,0,0,1-1.5-1.64v-5h3.2V194.3h-3.18V191Zm-10.21,5.22c4.49,0,4.49,7,0,7a3.5,3.5,0,0,1,0-7m3.41-.68a4.24,4.24,0,0,0-3.67-1.87c-3.37,0-6,2.06-6,6s2.52,6.15,5.94,6.13a4.38,4.38,0,0,0,3.74-2l.14,1.69h2.69V194.28h-2.73Zm-19.17-1.59v11.54h2.86v-6.09a2.66,2.66,0,0,1,2.88-2.92,2.84,2.84,0,0,1,2.05.75l1.29-2.48a4.34,4.34,0,0,0-3-1.1,3.4,3.4,0,0,0-3.25,1.63l-.21-1.33Zm-11.09,4.42a3.11,3.11,0,0,1,3.23-2.24c1.63,0,2.8.75,3,2.24Zm9,2.37c.44-4.75-2-7.14-5.83-7.14a5.78,5.78,0,0,0-6.13,6c0,3.69,2.37,6.15,6.34,6.15a7.08,7.08,0,0,0,5-1.87l-1.82-1.8a4.77,4.77,0,0,1-3.09,1.07c-2,0-3.25-1-3.44-2.45Zm-23.18,10v-6.65c.82,1.26,2.62,1.64,3.84,1.64,3.7,0,5.83-2.67,5.83-6a5.78,5.78,0,0,0-5.93-6,4.57,4.57,0,0,0-3.74,1.85l-.19-1.59h-2.66v16.83Zm3.53-7.77a3.2,3.2,0,0,1-3.27-3.28,3.28,3.28,0,1,1,6.55,0,3.2,3.2,0,0,1-3.28,3.28m-16.67,2.48v-6.18a2.63,2.63,0,0,1,2.5-2.86c1.55,0,2.18,1.29,2.18,2.81v6.23h2.85v-6.23c0-3.46-1.61-5.47-4.89-5.47a4.17,4.17,0,0,0-3.86,2.1,3.44,3.44,0,0,0-3.41-2.15,3.36,3.36,0,0,0-3.05,1.59l-.21-1.4h-2.64v11.56h2.85v-6.18a2.64,2.64,0,0,1,2.46-2.9c1.57,0,2.36,1.38,2.36,2.9v6.18ZM129.39,191a1.69,1.69,0,0,0,3.37,0,1.69,1.69,0,0,0-3.37,0m3.11,14.79h-2.86V194.23h2.86Z" transform="translate(-67 -9)"/><path class="cls-11" d="M211.49,172.88h2.83V156.53h-2.83Zm-9.14-9.26c4.49,0,4.49,7,0,7a3.5,3.5,0,0,1,0-7m3.42-.68a4.24,4.24,0,0,0-3.68-1.87c-3.37,0-6,2.06-6,6s2.53,6.16,5.94,6.13a4.38,4.38,0,0,0,3.75-2l.14,1.68h2.69V161.35h-2.74Zm-12.36,6.6a3.5,3.5,0,0,1-2.53,1,3.15,3.15,0,0,1-3.28-3.37,3.25,3.25,0,0,1,3.33-3.42,3.54,3.54,0,0,1,2.31.91l1.8-1.89a5.46,5.46,0,0,0-4.16-1.71c-3.35,0-6.13,2-6.13,6.11s2.78,6.1,6.13,6.1a5.91,5.91,0,0,0,4.44-1.82ZM179.49,158.1a1.68,1.68,0,0,0,3.36,0,1.68,1.68,0,0,0-3.36,0m3.11,14.78h-2.86V161.3h2.86Zm-11-14.48v3h-2.16v2.46h2.16v5c0,2.88,1.63,4.31,4.14,4.21a6.27,6.27,0,0,0,2.36-.49l-.79-2.43a3.32,3.32,0,0,1-1.39.35,1.43,1.43,0,0,1-1.49-1.64v-5h3.2v-2.46h-3.18V158.1Zm-7-.3a1.69,1.69,0,0,0,3.37,0,1.69,1.69,0,0,0-3.37,0m3.11,14.78H164.8V161.3h2.86Zm-8.55,0h2.83V156.53h-2.83Zm-8.24-9.17a3.26,3.26,0,0,1,3.14,3.42,3.15,3.15,0,1,1-6.28,0,3.18,3.18,0,0,1,3.14-3.42m0-2.6a6,6,0,1,0,6,6,5.78,5.78,0,0,0-6-6m-13.09,6.95c8.08-.07,8.05-11.58,0-11.58l-7.72,0v16.38h3.09v-4.82Zm-4.63-8.63h4.63a2.9,2.9,0,1,1,0,5.8h-4.63Z" transform="translate(-67 -9)"/><circle class="cls-7" cx="217.41" cy="217.41" r="213.56"/><circle class="cls-7" cx="324.19" cy="415.58" r="213.56"/><path class="cls-11" d="M648.27,193.35c0-1.47,1.57-2.32,3.07-2.32s3.11.43,3.11,2.23c0,1.4-1.43,1.59-2.67,2.24s-2.55,1.38-2.57,4.59l3.09,0a2.31,2.31,0,0,1,.89-2.17c1.36-.92,4.47-1.27,4.47-4.66s-3-4.94-6.27-4.94-6.23,1.55-6.25,5Zm.59,9.71a1.87,1.87,0,0,0,3.74,0,1.87,1.87,0,0,0-3.74,0m-8.11-9.78-2.1,5.06-1.2,3.18-1.1-3.26-1.75-5h-3.33l4.61,11.35-2.36,5.48h3.14l7.25-16.83Zm-12.13,8.19a3.5,3.5,0,0,1-2.53,1,3.15,3.15,0,0,1-3.28-3.37,3.25,3.25,0,0,1,3.33-3.42,3.5,3.5,0,0,1,2.31.92l1.8-1.9a5.46,5.46,0,0,0-4.16-1.71c-3.35,0-6.13,2-6.13,6.11s2.78,6.11,6.13,6.11a6,6,0,0,0,4.45-1.83ZM614.7,190a1.69,1.69,0,0,0,3.37,0,1.69,1.69,0,0,0-3.37,0m3.11,14.79H615V193.23h2.86Zm-8.55,0h2.83V188.46h-2.83ZM601,195.64a3.26,3.26,0,0,1,3.13,3.42,3.14,3.14,0,1,1-6.27,0,3.18,3.18,0,0,1,3.14-3.42m0-2.59a6,6,0,1,0,6,6,5.77,5.77,0,0,0-6-6m-17.18,17.06v-6.65c.82,1.26,2.62,1.64,3.84,1.64,3.69,0,5.82-2.67,5.82-6a5.77,5.77,0,0,0-5.92-6,4.57,4.57,0,0,0-3.74,1.85l-.19-1.59H581v16.83Zm3.53-7.77a3.2,3.2,0,0,1-3.27-3.28,3.28,3.28,0,1,1,6.55,0,3.2,3.2,0,0,1-3.28,3.28" transform="translate(-67 -9)"/><path class="cls-11" d="M648.77,164.77a3.1,3.1,0,0,1,3.22-2.25c1.64,0,2.81.75,3,2.25Zm9,2.36c.44-4.75-2-7.13-5.83-7.13a5.77,5.77,0,0,0-6.13,6c0,3.7,2.36,6.16,6.34,6.16a7.08,7.08,0,0,0,5-1.87l-1.82-1.81a4.77,4.77,0,0,1-3.09,1.08c-2,0-3.25-1-3.44-2.46Zm-15.52-6.81-1.59,3.86L638.87,169l-1.78-4.87-1.59-3.82h-3.11l4.93,11.61h3.09l4.92-11.61Zm-14.5-3.23a1.69,1.69,0,0,0,3.37,0,1.69,1.69,0,0,0-3.37,0m3.11,14.79H628V160.3h2.86Zm-11-14.48v3h-2.16v2.46h2.16v5c0,2.88,1.63,4.31,4.14,4.21a6.27,6.27,0,0,0,2.36-.49l-.79-2.43a3.32,3.32,0,0,1-1.38.35,1.44,1.44,0,0,1-1.5-1.64v-5h3.2v-2.46h-3.18v-3.28Zm-5.17,11.14a3.47,3.47,0,0,1-2.53,1,3.14,3.14,0,0,1-3.27-3.37,3.24,3.24,0,0,1,3.32-3.42,3.5,3.5,0,0,1,2.32.91l1.8-1.89a5.48,5.48,0,0,0-4.17-1.71c-3.34,0-6.13,2-6.13,6.11s2.79,6.1,6.13,6.1a5.93,5.93,0,0,0,4.45-1.82Zm-19.16-3.77a3.1,3.1,0,0,1,3.23-2.25c1.63,0,2.8.75,3,2.25Zm9,2.36c.44-4.75-2-7.13-5.83-7.13a5.77,5.77,0,0,0-6.13,6c0,3.7,2.37,6.16,6.34,6.16a7.08,7.08,0,0,0,5-1.87L602,168.51a4.77,4.77,0,0,1-3.09,1.08c-2,0-3.25-1-3.44-2.46Zm-16.36,4.75V163h3.4v-2.5h-3.4v-.77c0-1.41.75-2.06,1.73-2.06a3.17,3.17,0,0,1,1.76.61l1-2.13a5.54,5.54,0,0,0-3-.94,4.18,4.18,0,0,0-4.4,4.52v.77h-2.15V163h2.15v8.87Zm-9.54,0V163h3.39v-2.5h-3.39v-.77c0-1.41.75-2.06,1.73-2.06a3.17,3.17,0,0,1,1.76.61l1.05-2.13a5.57,5.57,0,0,0-3-.94,4.18,4.18,0,0,0-4.4,4.52v.77h-2.16V163h2.16v8.87Zm-6.54-3h-9.2v-3.7h8.87v-2.87H562.8V158.5H572v-3H559.74v16.38H572Z" transform="translate(-67 -9)"/><path class="cls-11" d="M431.59,533.05c0-1.47,1.57-2.32,3.06-2.32s3.12.43,3.12,2.23c0,1.4-1.43,1.59-2.67,2.24s-2.55,1.38-2.57,4.59l3.08,0a2.31,2.31,0,0,1,.89-2.17c1.36-.92,4.47-1.27,4.47-4.66S438,528,434.7,528s-6.22,1.55-6.25,5Zm.58,9.71a1.88,1.88,0,0,0,3.75,0,1.88,1.88,0,0,0-3.75,0m-12.08,1.76v-6.18a2.63,2.63,0,0,1,2.5-2.86c1.55,0,2.18,1.29,2.18,2.81v6.23h2.86v-6.23c0-3.46-1.62-5.47-4.9-5.47a4.17,4.17,0,0,0-3.86,2.1,3.44,3.44,0,0,0-3.41-2.15,3.33,3.33,0,0,0-3,1.59l-.22-1.4h-2.64v11.56h2.86v-6.18a2.63,2.63,0,0,1,2.45-2.9c1.57,0,2.37,1.38,2.37,2.9v6.18Zm-21.63-7.12a3.12,3.12,0,0,1,3.23-2.24c1.64,0,2.81.75,3,2.24Zm9,2.37c.44-4.75-2-7.14-5.83-7.14a5.78,5.78,0,0,0-6.13,6c0,3.69,2.36,6.15,6.34,6.15a7.1,7.1,0,0,0,5-1.87l-1.82-1.8a4.77,4.77,0,0,1-3.09,1.07c-2,0-3.26-1-3.44-2.45Zm-17,4.75h2.83V528.16h-2.83Zm-14.81-16.36v16.36h2.67l.19-1.59a4.19,4.19,0,0,0,3.72,1.84,5.65,5.65,0,0,0,5.94-6c0-4-2.5-6-5.87-6a4.78,4.78,0,0,0-3.79,1.85v-6.39Zm6.39,7.21a3.18,3.18,0,0,1,3.28,3.37,3.32,3.32,0,1,1-6.63,0,3.29,3.29,0,0,1,3.35-3.37m-14.6,0a3.26,3.26,0,0,1,3.13,3.42,3.14,3.14,0,1,1-6.27,0,3.18,3.18,0,0,1,3.14-3.42m0-2.59a6,6,0,1,0,6,6,5.83,5.83,0,0,0-6-6M352,533v11.54h2.86v-6.09a2.66,2.66,0,0,1,2.88-2.92,2.84,2.84,0,0,1,2.05.75l1.29-2.48a4.34,4.34,0,0,0-3-1.1,3.4,3.4,0,0,0-3.25,1.63l-.21-1.33Zm-11.87,16.83v-6.65c.81,1.26,2.62,1.64,3.83,1.64,3.7,0,5.83-2.67,5.83-6a5.77,5.77,0,0,0-5.92-6,4.56,4.56,0,0,0-3.74,1.85L339.9,533h-2.67v16.83Zm3.53-7.77a3.21,3.21,0,0,1-3.28-3.28,3.28,3.28,0,1,1,6.55,0,3.2,3.2,0,0,1-3.27,3.28" transform="translate(-67 -9)"/><path class="cls-11" d="M439.92,495.23v6.39a4.75,4.75,0,0,0-3.79-1.85c-3.37,0-5.87,2.06-5.87,6a5.66,5.66,0,0,0,5.94,6,4.2,4.2,0,0,0,3.72-1.85l.19,1.59h2.66V495.23Zm-3.53,7.2a3.39,3.39,0,0,1,0,6.77,3.24,3.24,0,0,1-3.28-3.4,3.18,3.18,0,0,1,3.28-3.37m-16.64,2a3.1,3.1,0,0,1,3.23-2.25c1.64,0,2.81.75,3,2.25Zm9,2.36c.45-4.75-2-7.13-5.83-7.13a5.77,5.77,0,0,0-6.13,6c0,3.7,2.37,6.16,6.34,6.16a7.12,7.12,0,0,0,5-1.87l-1.83-1.81a4.75,4.75,0,0,1-3.09,1.08c-2,0-3.25-1-3.44-2.46ZM413.2,500l-1.59,3.86-1.76,4.83-1.78-4.87L406.48,500h-3.11l4.94,11.61h3.09L416.31,500Zm-14.51-3.23a1.69,1.69,0,0,0,3.37,0,1.69,1.69,0,0,0-3.37,0m3.11,14.79H399V500h2.85Zm-14-7.11a3.1,3.1,0,0,1,3.23-2.25c1.63,0,2.8.75,3,2.25Zm9,2.36c.44-4.75-2-7.13-5.83-7.13a5.77,5.77,0,0,0-6.13,6c0,3.7,2.37,6.16,6.34,6.16a7.08,7.08,0,0,0,5-1.87l-1.82-1.81a4.77,4.77,0,0,1-3.09,1.08c-2,0-3.25-1-3.44-2.46Zm-14.57,1.41a3.48,3.48,0,0,1-2.53,1,3.15,3.15,0,0,1-3.28-3.37,3.25,3.25,0,0,1,3.33-3.42,3.47,3.47,0,0,1,2.31.91l1.81-1.89a5.5,5.5,0,0,0-4.17-1.71c-3.35,0-6.13,2-6.13,6.11s2.78,6.1,6.13,6.1a6,6,0,0,0,4.45-1.82Zm-18.13-8.19v11.53h2.85V505.5a2.67,2.67,0,0,1,2.88-2.93,2.85,2.85,0,0,1,2.06.75l1.29-2.48a4.38,4.38,0,0,0-3-1.1,3.41,3.41,0,0,0-3.26,1.64l-.21-1.33ZM353,504.47a3.11,3.11,0,0,1,3.23-2.25c1.64,0,2.81.75,3,2.25Zm9,2.36c.45-4.75-2-7.13-5.82-7.13a5.76,5.76,0,0,0-6.13,6c0,3.7,2.36,6.16,6.34,6.16a7.11,7.11,0,0,0,5-1.87l-1.83-1.81a4.74,4.74,0,0,1-3.09,1.08c-2,0-3.25-1-3.43-2.46Zm-19.1-.07c8.07-.07,8-11.58,0-11.58l-7.73,0v16.38h3.09v-4.82Zm-4.64-8.63h4.64a2.9,2.9,0,1,1,0,5.8h-4.64Z" transform="translate(-67 -9)"/><path class="cls-12" d="M444.73,292.91h-3.46l-3.75,11.82-4.09-11.82h-2l-4,11.82-3.86-11.82h-3.47l6,16.38h2.62l2-5.1,1.7-5.22,1.74,5.17,2,5.15h2.62ZM406,301.26c-.09-3.25,2-5.87,5.46-5.87,3.76.07,5.33,3.11,5.28,5.85s-1.49,5.59-5.35,5.59-5.32-2.88-5.39-5.57m5.46-8.68a8.29,8.29,0,0,0-8.5,8.64c0,4.3,2.67,8.44,8.43,8.44s8.35-4.23,8.4-8.47-2.74-8.56-8.33-8.61m-21.84,3.25H393c3.55,0,5.05,2.55,5.12,5.1s-1.4,5.39-5.12,5.39h-3.37Zm3.37-2.92h-6.44v16.38H393c5.73,0,8.26-4.19,8.19-8.33s-2.58-8-8.19-8m-21.94,0h-2.5v16.38h3.09V298.38l8.7,10.91h2.51V292.91h-3.09v11Zm-6.16,0h-3.07v16.38h3.07Zm-5,0h-3.47l-3.74,11.82-4.09-11.82h-2l-4,11.82-3.86-11.82H335.3l6,16.38h2.63l2-5.1,1.71-5.22,1.73,5.17,2,5.15H354Z" transform="translate(-67 -9)"/><path class="cls-12" d="M421.44,260h-3.67v.14l6.29,9.47v6.77h3.09v-6.77l6.53-9.47V260H430l-4.35,6.76Zm-6.29,12.19a6,6,0,0,1-4.12,1.66,5.26,5.26,0,0,1-5.64-5.55A5.37,5.37,0,0,1,411,262.6a5.65,5.65,0,0,1,4,1.54l2.06-2a8.46,8.46,0,0,0-6-2.5c-5.92,0-8.7,4.35-8.68,8.63s2.6,8.45,8.68,8.45a8.65,8.65,0,0,0,6.23-2.43ZM399.62,260h-3.07v16.38h3.07Zm-16.53,0v16.38h11.52V273.5h-8.43V260Zm-16.51,8.35c-.1-3.25,2-5.87,5.45-5.87,3.77.07,5.33,3.11,5.29,5.85s-1.5,5.59-5.36,5.59-5.31-2.88-5.38-5.57m5.45-8.68a8.29,8.29,0,0,0-8.5,8.63c0,4.31,2.67,8.45,8.43,8.45s8.35-4.24,8.4-8.47-2.74-8.57-8.33-8.61m-16,11.89c8.07-.08,8.05-11.59,0-11.59l-7.72,0v16.38h3.09v-4.82Zm-4.63-8.64H356a2.9,2.9,0,1,1,0,5.8h-4.63Z" transform="translate(-67 -9)"/><path class="cls-11" d="M437.46,186v6.42h1.07v-3.64a1.75,1.75,0,0,1,1.74-1.88,1.73,1.73,0,0,1,1.73,1.88v3.64h1.06v-3.64a1.77,1.77,0,0,1,1.76-1.88,1.68,1.68,0,0,1,1.67,1.86v3.66h1.06v-3.66a2.57,2.57,0,0,0-2.7-2.86,2.41,2.41,0,0,0-2.27,1.4,2.14,2.14,0,0,0-2.15-1.4,2.07,2.07,0,0,0-1.9,1l-.07-.93h-1ZM435,188.73h-4.45a2.2,2.2,0,0,1,2.28-1.91,2,2,0,0,1,2.17,1.93Zm.63,2.67-.71-.65a2.81,2.81,0,0,1-2,.8,2.18,2.18,0,0,1-2.33-1.92H436c.25-2.56-1.25-3.77-3.21-3.77a3.34,3.34,0,1,0,.05,6.68,3.73,3.73,0,0,0,2.77-1.14Zm-7.78-8.07h-1.07v9.09h1.07Zm-6,3.56a2.33,2.33,0,0,1,0,4.65,2.33,2.33,0,0,1,0-4.65m-2.32-3.56h-1.07v9.09h1l0-1.17a2.67,2.67,0,0,0,2.39,1.29,3.1,3.1,0,0,0,3.26-3.33,3.07,3.07,0,0,0-3.25-3.32,2.69,2.69,0,0,0-2.4,1.28Zm-3.65,5.9a2.23,2.23,0,0,1-2.29,2.31,2.21,2.21,0,0,1-2.27-2.31,2.28,2.28,0,1,1,4.56,0m-5.62,0a3.34,3.34,0,1,0,3.33-3.37,3.23,3.23,0,0,0-3.33,3.37M406.24,186h-1v6.42h1.06v-3.57a1.86,1.86,0,0,1,1.89-1.93,1.83,1.83,0,0,1,1.12.36l.48-.91a2.38,2.38,0,0,0-1.5-.48,2.07,2.07,0,0,0-2,1.06l-.08-1Zm-5.87,5.57a2.24,2.24,0,0,1-2.25-2.32,2.19,2.19,0,0,1,2.25-2.3,2.15,2.15,0,0,1,2.27,2.3,2.18,2.18,0,0,1-2.27,2.32m-3.4,3.88h1v-4.18a2.73,2.73,0,0,0,2.43,1.3,3.33,3.33,0,0,0,.06-6.66,2.86,2.86,0,0,0-2.47,1.35l0-1.23h-1Zm-5.83-6.72H386.7a2.19,2.19,0,0,1,2.27-1.91,1.94,1.94,0,0,1,2.17,1.93Zm.64,2.67-.71-.65a2.82,2.82,0,0,1-2,.8,2.18,2.18,0,0,1-2.33-1.92h5.46c.25-2.56-1.25-3.77-3.21-3.77a3.34,3.34,0,1,0,.05,6.68,3.73,3.73,0,0,0,2.77-1.14Zm-12.53-8.07H378.2v9.09h1.06V189a2,2,0,0,1,2-2.1c1.17,0,1.82.72,1.82,2v3.52h1.05v-3.53c0-1.77-.88-3-2.69-3a2.53,2.53,0,0,0-2.22,1.14v-3.73Zm-4.41.8-1.06.12V186h-1.29v.9h1.29v3.4c0,1.42.65,2.22,2,2.19a3,3,0,0,0,1.25-.31l-.31-.88a2.14,2.14,0,0,1-.9.23c-.76,0-1-.48-1-1.23v-3.4h2V186h-2Zm-8.24,0-1.06.12V186h-1.29v.9h1.29v3.4c0,1.42.64,2.22,2,2.19a3,3,0,0,0,1.25-.31l-.31-.88a2.14,2.14,0,0,1-.9.23c-.77,0-1-.48-1-1.23v-3.4h2V186h-2Zm-4.74,8.29h1V186h-1.06v3.45a2,2,0,0,1-2,2.09,1.83,1.83,0,0,1-1.95-2V186h-1.06v3.55a2.79,2.79,0,0,0,5,1.85l.05,1Zm-7.57-3.19a2.28,2.28,0,1,1-2.28-2.4,2.26,2.26,0,0,1,2.28,2.4m-5.62,0a3.34,3.34,0,1,0,3.33-3.37,3.2,3.2,0,0,0-3.33,3.37m-4.47-2.34a2.33,2.33,0,0,1,0,4.65,2.33,2.33,0,0,1,0-4.65m-2.33-3.56h-1.06v9.09h1l.05-1.17a2.7,2.7,0,0,0,2.4,1.29,3.11,3.11,0,0,0,3.26-3.33,3.08,3.08,0,0,0-3.25-3.32,2.72,2.72,0,0,0-2.41,1.28Zm-6.39,3.57c3.08,0,3.08,4.71,0,4.71a2.35,2.35,0,0,1,0-4.7Zm2.35,5.52h1V186h-1v1.17a2.7,2.7,0,0,0-2.38-1.27,3.34,3.34,0,0,0,0,6.68,2.73,2.73,0,0,0,2.37-1.3l0,1.17Z" transform="translate(-67 -9)"/><path class="cls-11" d="M445.16,171.82l.61-.7a3.39,3.39,0,0,0-2.44-.86c-1.24,0-2.62.52-2.6,1.88s1.32,1.69,2.56,1.85c1,.12,1.74.32,1.73,1s-.93,1-1.63,1a3,3,0,0,1-2.29-1l-.61.74a3.51,3.51,0,0,0,2.87,1.21c1.45,0,2.67-.64,2.69-1.92,0-1.59-1.53-1.82-2.7-2-.8-.09-1.59-.28-1.6-1s.7-.95,1.59-.93a2.46,2.46,0,0,1,1.81.62Zm-8.71-1.42h-1v6.42h1.07v-3.57a1.85,1.85,0,0,1,1.88-1.93,1.89,1.89,0,0,1,1.12.35l.48-.9a2.37,2.37,0,0,0-1.49-.48,2.08,2.08,0,0,0-2,1.06l-.08-1ZM433,173.13h-4.44a2.19,2.19,0,0,1,2.27-1.91,1.94,1.94,0,0,1,2.17,1.93Zm.64,2.67-.71-.65a2.82,2.82,0,0,1-2,.8,2.18,2.18,0,0,1-2.33-1.92H434c.25-2.56-1.25-3.77-3.21-3.77a3.34,3.34,0,1,0,.05,6.68,3.73,3.73,0,0,0,2.77-1.14Zm-9.11-7.27-1.07.12v1.77h-1.28v.9h1.28v3.4c0,1.42.65,2.22,2,2.19a3,3,0,0,0,1.25-.31l-.31-.88a2.14,2.14,0,0,1-.9.23c-.77,0-1-.48-1-1.23v-3.4h2v-.9h-2Zm-4.25,5.1a2.28,2.28,0,1,1-2.28-2.4,2.26,2.26,0,0,1,2.28,2.4m-5.62,0a3.34,3.34,0,1,0,3.33-3.37,3.2,3.2,0,0,0-3.33,3.37m-7.21-3.23,2.71,6.44h1.17L414,170.4h-1.17l-1,2.52-1.08,2.77-1.09-2.78-1-2.51Zm-4.85,2.73h-4.45a2.2,2.2,0,0,1,2.28-1.91,1.94,1.94,0,0,1,2.17,1.93Zm.63,2.67-.71-.65a2.81,2.81,0,0,1-2,.8,2.18,2.18,0,0,1-2.33-1.92h5.46c.25-2.56-1.25-3.77-3.21-3.77a3.34,3.34,0,1,0,.05,6.68,3.73,3.73,0,0,0,2.77-1.14Zm-7,.17-.72-.72a2.3,2.3,0,0,1-1.68.68,2.32,2.32,0,0,1,0-4.63,2.33,2.33,0,0,1,1.62.65l.68-.7a3.19,3.19,0,0,0-2.33-1,3.33,3.33,0,1,0,0,6.65,3.27,3.27,0,0,0,2.39-1ZM383,170.4v6.42h1v-3.44a2,2,0,0,1,2-2.1,1.83,1.83,0,0,1,1.95,2v3.53H389v-3.55a2.72,2.72,0,0,0-2.82-3,2.64,2.64,0,0,0-2.2,1.11l-.05-1h-1Zm-3,0H381v6.44H380Zm-.15-1.94a.7.7,0,1,0,1.4,0,.7.7,0,0,0-1.4,0m-7.77,2,2.72,6.44h1.17l2.71-6.44h-1.17l-1,2.52-1.08,2.77-1.1-2.78-1-2.51Zm-7,0v6.42h1.05v-3.44a2,2,0,0,1,2-2.1,1.83,1.83,0,0,1,1.95,2v3.53h1.06v-3.55a2.72,2.72,0,0,0-2.82-3,2.64,2.64,0,0,0-2.2,1.11l0-1h-1Zm-2.59,3.23a2.28,2.28,0,1,1-2.28-2.4,2.26,2.26,0,0,1,2.28,2.4m-5.62,0a3.34,3.34,0,1,0,3.33-3.37,3.2,3.2,0,0,0-3.33,3.37m-.79,2.34-.72-.72a2.28,2.28,0,0,1-1.67.68,2.18,2.18,0,0,1-2.29-2.32,2.21,2.21,0,0,1,2.3-2.31,2.37,2.37,0,0,1,1.63.65l.67-.7a3.33,3.33,0,1,0-2.33,5.69,3.28,3.28,0,0,0,2.4-1Zm-11.27-2.34a2.28,2.28,0,1,1-2.28-2.4,2.26,2.26,0,0,1,2.28,2.4m-5.62,0a3.34,3.34,0,1,0,3.33-3.37,3.2,3.2,0,0,0-3.33,3.37m-2.94-5.1-1.06.12v1.77h-1.29v.9h1.29v3.4c0,1.42.65,2.22,2,2.19a3,3,0,0,0,1.24-.31l-.31-.88a2.1,2.1,0,0,1-.89.23c-.77,0-1-.48-1-1.23v-3.4h2v-.9h-2Z" transform="translate(-67 -9)"/><path class="cls-11" d="M451.41,152.93l-1.06.12v1.77h-1.29v.9h1.29v3.4c0,1.42.64,2.22,2,2.19a3,3,0,0,0,1.25-.31l-.31-.88a2.14,2.14,0,0,1-.9.23c-.77,0-1-.48-1-1.23v-3.4h2v-.9h-2Zm-3.83-.8h-1.07v9.09h1.07Zm-4.09,9.09h1V154.8h-1.06v3.45a2,2,0,0,1-2,2.09,1.83,1.83,0,0,1-1.95-2V154.8h-1.07v3.55a2.8,2.8,0,0,0,5,1.85l.05,1Zm-6.33-.85-.71-.72a2.32,2.32,0,0,1-1.68.68,2.18,2.18,0,0,1-2.29-2.32,2.21,2.21,0,0,1,2.3-2.31,2.35,2.35,0,0,1,1.63.65l.67-.7a3.33,3.33,0,1,0-2.32,5.69,3.27,3.27,0,0,0,2.39-1Zm-8.37-5.59h1.07v6.44h-1.07Zm-.15-1.94a.7.7,0,1,0,1.4,0,.7.7,0,0,0-1.4,0m-4.11,8.38h1.06v-5.4h2v-.94h-2v-.51c0-1,.44-1.39,1.13-1.39a1.8,1.8,0,0,1,1,.33l.44-.8a2.62,2.62,0,0,0-1.45-.46,2.05,2.05,0,0,0-2.16,2.32v.51h-1.26v.94h1.26v5.4Zm-5,0h1.07v-5.4h2v-.94h-2v-.51c0-1,.44-1.39,1.13-1.39a1.86,1.86,0,0,1,1,.33l.44-.8a2.65,2.65,0,0,0-1.46-.46,2,2,0,0,0-2.15,2.32v.51h-1.27v.94h1.27v5.42Zm-3.72-6.44h1.07v6.44h-1.07Zm-.15-1.94a.7.7,0,1,0,1.4,0,.7.7,0,0,0-1.4,0m-5.19,2.83a2.33,2.33,0,0,1,0,4.66,2.33,2.33,0,0,1,0-4.66Zm3.38-3.54h-1.05V156a2.72,2.72,0,0,0-2.41-1.28,3.07,3.07,0,0,0-3.23,3.32,3.1,3.1,0,0,0,3.25,3.33,2.7,2.7,0,0,0,2.4-1.3l.05,1.17h1v-9.08Zm-13,.8-1.06.12v1.77h-1.29v.9h1.29v3.4c0,1.42.65,2.22,2,2.19a3,3,0,0,0,1.24-.31l-.31-.88a2.11,2.11,0,0,1-.9.23c-.76,0-1-.48-1-1.23v-3.4h2v-.9h-2Zm-4.74,8.29h1V154.8h-1.07v3.45a2,2,0,0,1-2,2.09,1.83,1.83,0,0,1-2-2V154.8h-1.06v3.55a2.79,2.79,0,0,0,5,1.85l.05,1Zm-9.87-5.53a2.33,2.33,0,0,1,0,4.65,2.33,2.33,0,0,1,0-4.65M384,152.13h-1.06v9.09h1l.05-1.17a2.7,2.7,0,0,0,2.4,1.29,3.11,3.11,0,0,0,3.26-3.33,3.08,3.08,0,0,0-3.25-3.32A2.72,2.72,0,0,0,384,156Zm-7.16,9.13-.32,1.17h.71c.26-.83.56-1.62.56-1.74a.7.7,0,0,0-1.39,0,.58.58,0,0,0,.46.58ZM374,157.53h-4.44a2.19,2.19,0,0,1,2.27-1.91,1.94,1.94,0,0,1,2.17,1.93Zm.64,2.67-.71-.65a2.82,2.82,0,0,1-2,.8,2.18,2.18,0,0,1-2.33-1.92H375c.25-2.56-1.25-3.77-3.21-3.77a3.34,3.34,0,1,0,0,6.68,3.73,3.73,0,0,0,2.77-1.14Zm-7.79-8.07h-1.06v9.09h1.06Zm-6,3.56a2.33,2.33,0,0,1,0,4.65,2.33,2.33,0,0,1,0-4.65m-2.33-3.56h-1.06v9.09h1l.05-1.17a2.7,2.7,0,0,0,2.4,1.29,3.11,3.11,0,0,0,3.26-3.33,3.08,3.08,0,0,0-3.25-3.32,2.72,2.72,0,0,0-2.41,1.28Zm-4.08,2.65h1.07v6.44h-1.07Zm-.15-1.94a.7.7,0,1,0,1.4,0,.7.7,0,0,0-1.4,0m-2.2,3.38.61-.7a3.39,3.39,0,0,0-2.44-.86c-1.24,0-2.61.52-2.6,1.88s1.32,1.69,2.56,1.85c1,.12,1.74.33,1.73,1s-.93,1-1.63,1a3,3,0,0,1-2.29-1l-.61.74a3.52,3.52,0,0,0,2.88,1.21c1.44,0,2.66-.64,2.69-1.92,0-1.59-1.54-1.82-2.71-2-.8-.09-1.58-.28-1.6-1s.71-.95,1.59-.93a2.46,2.46,0,0,1,1.81.62Zm-9.46-.52c3.08,0,3.08,4.71,0,4.71a2.35,2.35,0,0,1,0-4.7Zm2.35,5.52h1V154.8h-1l0,1.17a2.68,2.68,0,0,0-2.38-1.27,3.34,3.34,0,0,0,0,6.68,2.73,2.73,0,0,0,2.37-1.3l0,1.17Zm-7.8-3.69h-4.45a2.2,2.2,0,0,1,2.28-1.91,1.94,1.94,0,0,1,2.17,1.93Zm.64,2.67-.72-.65a2.81,2.81,0,0,1-2,.8,2.18,2.18,0,0,1-2.33-1.92h5.46c.25-2.56-1.24-3.77-3.21-3.77a3.34,3.34,0,1,0,.05,6.68,3.72,3.72,0,0,0,2.77-1.14Zm-9.88,1H329v-5.4h2v-.94h-2v-.51c0-1,.44-1.39,1.13-1.39a1.8,1.8,0,0,1,1,.33l.44-.8a2.62,2.62,0,0,0-1.45-.46,2.05,2.05,0,0,0-2.16,2.32v.51h-1.26v.94h1.26v5.4Z" transform="translate(-67 -9)"/><path class="cls-11" d="M436.9,139.2h-1.17l-1.41,3.36-.69,1.82-.7-1.84-1.27-3.34h-1.2l2.58,6.33-1.34,3.12h1.15ZM429,136.53H428v9.09H429Zm-3.17,0h-1.06v9.09h1.06Zm-6.47,3.57c3.08,0,3.08,4.71,0,4.71a2.35,2.35,0,0,1,0-4.7Zm2.35,5.52h1V139.2h-1l0,1.17a2.68,2.68,0,0,0-2.38-1.27,3.34,3.34,0,0,0,0,6.68,2.73,2.73,0,0,0,2.37-1.3l0,1.17Zm-6.51-.85-.72-.72a2.3,2.3,0,0,1-1.68.68,2.32,2.32,0,0,1,0-4.63,2.33,2.33,0,0,1,1.62.65l.68-.7a3.19,3.19,0,0,0-2.33-1,3.33,3.33,0,1,0,0,6.65,3.27,3.27,0,0,0,2.39-1Zm-8.37-5.59h1.06v6.44h-1.06Zm-.16-1.94a.7.7,0,1,0,1.4,0,.7.7,0,0,0-1.4,0m-7.75,2v6.42H400v-3.44a2,2,0,0,1,2-2.09,1.82,1.82,0,0,1,2,2v3.53H405v-3.55a2.73,2.73,0,0,0-2.83-3,2.62,2.62,0,0,0-2.19,1.12l0-1h-1Zm-6.77-2.67h-1.05v9.09h1.06v-3.4a2,2,0,0,1,2-2.1c1.17,0,1.82.72,1.82,2v3.52h1.05v-3.53c0-1.77-.88-3-2.69-3a2.53,2.53,0,0,0-2.22,1.14v-3.73Zm-2.41,8.24-.71-.72a2.32,2.32,0,0,1-1.68.68,2.18,2.18,0,0,1-2.29-2.32,2.21,2.21,0,0,1,2.3-2.31,2.35,2.35,0,0,1,1.63.65l.67-.7a3.33,3.33,0,1,0-2.32,5.69,3.27,3.27,0,0,0,2.39-1Zm-7.85-2.84h-4.44a2.19,2.19,0,0,1,2.27-1.91A1.94,1.94,0,0,1,381.9,142Zm.64,2.67-.72-.65a2.81,2.81,0,0,1-2,.8,2.17,2.17,0,0,1-2.32-1.92h5.46c.24-2.56-1.25-3.77-3.22-3.77a3.34,3.34,0,1,0,.06,6.68,3.73,3.73,0,0,0,2.77-1.14Zm-9.12-7.27-1.06.12v1.77h-1.29v.9h1.29v3.4c0,1.42.65,2.22,2,2.19a3,3,0,0,0,1.24-.31l-.31-.88a2.1,2.1,0,0,1-.89.23c-.77,0-1-.48-1-1.23v-3.4h2v-.9h-2Zm-10.23,2.74a2.33,2.33,0,0,1,0,4.66,2.33,2.33,0,0,1,0-4.66Zm3.38-3.54h-1.05v3.84a2.69,2.69,0,0,0-2.4-1.28,3.08,3.08,0,0,0-3.24,3.32,3.11,3.11,0,0,0,3.25,3.33,2.72,2.72,0,0,0,2.41-1.3l0,1.17h1v-9.1Zm-14.2,2.67v6.42h1.05v-3.44a2,2,0,0,1,2-2.09,1.82,1.82,0,0,1,2,2v3.53h1.06v-3.55a2.72,2.72,0,0,0-2.82-3,2.62,2.62,0,0,0-2.2,1.12l-.05-1h-1Zm-5.33.9c3.08,0,3.08,4.71,0,4.71a2.35,2.35,0,0,1,0-4.7Zm2.35,5.52h1V139.2h-1l0,1.17A2.68,2.68,0,0,0,347,139.1a3.34,3.34,0,0,0,0,6.68,2.73,2.73,0,0,0,2.37-1.3l0,1.17Z" transform="translate(-67 -9)"/><path class="cls-11" d="M448.64,126.33h-4.45a2.2,2.2,0,0,1,2.28-1.91,2,2,0,0,1,2.17,1.93Zm.63,2.67-.71-.65a2.81,2.81,0,0,1-2,.8,2.18,2.18,0,0,1-2.33-1.92h5.46c.25-2.56-1.25-3.77-3.21-3.77a3.34,3.34,0,1,0,.05,6.68,3.73,3.73,0,0,0,2.77-1.14Zm-7.78-8.07h-1.07V130h1.07Zm-6,3.56a2.33,2.33,0,0,1,0,4.65,2.33,2.33,0,0,1,0-4.65m-2.32-3.56h-1.07V130h1l.06-1.17a2.67,2.67,0,0,0,2.39,1.29,3.1,3.1,0,0,0,3.26-3.33,3.07,3.07,0,0,0-3.25-3.32,2.69,2.69,0,0,0-2.4,1.28Zm-6.4,3.57c3.08,0,3.08,4.71,0,4.71a2.35,2.35,0,0,1,0-4.7Zm2.36,5.52h1V123.6h-1v1.17a2.7,2.7,0,0,0-2.38-1.27,3.34,3.34,0,0,0,0,6.68,2.71,2.71,0,0,0,2.36-1.3l0,1.17Zm-9.68-6.42h-1V130h1.06v-3.57a1.86,1.86,0,0,1,1.88-1.93,1.81,1.81,0,0,1,1.12.36L423,124a2.35,2.35,0,0,0-1.49-.48,2.09,2.09,0,0,0-2,1.06l-.08-1Zm-4,0h1.06V130h-1.06Zm-.16-1.94a.71.71,0,0,0,1.41,0,.71.71,0,0,0-1.41,0M413.06,125l.61-.7a3.41,3.41,0,0,0-2.45-.86c-1.23,0-2.61.52-2.6,1.88s1.33,1.69,2.56,1.85c1,.12,1.75.33,1.73,1s-.92,1-1.62,1a3,3,0,0,1-2.29-1l-.61.74a3.5,3.5,0,0,0,2.87,1.21c1.45,0,2.67-.64,2.69-1.92,0-1.59-1.53-1.82-2.7-2-.81-.09-1.59-.28-1.6-1s.7-1,1.59-.93a2.44,2.44,0,0,1,1.8.62Zm-6.63,1.31H402a2.19,2.19,0,0,1,2.27-1.91,2,2,0,0,1,2.18,1.93Zm.63,2.67-.71-.65a2.82,2.82,0,0,1-2,.8,2.18,2.18,0,0,1-2.33-1.92h5.46c.25-2.56-1.25-3.77-3.21-3.77a3.34,3.34,0,1,0,0,6.68,3.73,3.73,0,0,0,2.77-1.14ZM396,124.47a2.33,2.33,0,0,1,0,4.66,2.33,2.33,0,0,1,0-4.66Zm3.38-3.54h-1v3.84a2.72,2.72,0,0,0-2.41-1.28,3.07,3.07,0,0,0-3.23,3.32,3.1,3.1,0,0,0,3.25,3.33,2.71,2.71,0,0,0,2.4-1.3l.05,1.17h1v-9.08Zm-10.59,2.67h-1.17L386.16,127l-.69,1.82-.7-1.84-1.26-3.34H382.3l2.58,6.33-1.33,3.12h1.14Zm-7.9-2.67h-1.06V130h1.06Zm-3.17,0h-1.06V130h1.06Zm-6.47,3.57c3.08,0,3.08,4.71,0,4.71a2.35,2.35,0,0,1,0-4.7Zm2.35,5.52h1V123.6h-1v1.17a2.7,2.7,0,0,0-2.38-1.27,3.34,3.34,0,0,0,0,6.68,2.73,2.73,0,0,0,2.37-1.3l0,1.17Zm-6.51-.85-.72-.72a2.28,2.28,0,0,1-1.67.68,2.18,2.18,0,0,1-2.29-2.32,2.21,2.21,0,0,1,2.3-2.31,2.33,2.33,0,0,1,1.62.65l.68-.7a3.19,3.19,0,0,0-2.33-1,3.33,3.33,0,1,0,0,6.65,3.28,3.28,0,0,0,2.4-1Zm-8.37-5.59h1.06V130h-1.06Zm-.16-1.94a.7.7,0,1,0,1.4,0,.7.7,0,0,0-1.4,0m-3.2.09-1.06.12v1.77H353v.9h1.29v3.4c0,1.42.65,2.22,2,2.19a3,3,0,0,0,1.25-.31l-.31-.88a2.14,2.14,0,0,1-.9.23c-.76,0-1-.48-1-1.23v-3.4h2v-.9h-2Zm-4.82,1.85h1.07V130H350.5Zm-.15-1.94a.7.7,0,1,0,1.4,0,.7.7,0,0,0-1.4,0m-1.88-.71h-1.06V130h1.06Zm-3.73,5.9a2.28,2.28,0,1,1-2.27-2.4,2.26,2.26,0,0,1,2.27,2.4m-5.61,0a3.33,3.33,0,1,0,3.32-3.37,3.19,3.19,0,0,0-3.32,3.37m-3.94-.8h-3v-4h3a2,2,0,0,1,0,4m-3,1.06h3a3.08,3.08,0,1,0,0-6.16h-4.14V130h1.12Z" transform="translate(-67 -9)"/><path class="cls-11" d="M289.47,407l.61-.7a3.43,3.43,0,0,0-2.44-.86c-1.24,0-2.61.52-2.6,1.89s1.32,1.69,2.56,1.84c1,.12,1.74.33,1.73,1s-.92,1-1.63,1a2.92,2.92,0,0,1-2.28-1l-.62.75a3.51,3.51,0,0,0,2.88,1.2c1.44,0,2.66-.63,2.69-1.92,0-1.59-1.54-1.82-2.71-2-.8-.09-1.58-.29-1.6-.95s.71-1,1.59-.94a2.47,2.47,0,0,1,1.81.63Zm-6.63,1.32H278.4a2.19,2.19,0,0,1,2.27-1.92,1.94,1.94,0,0,1,2.17,1.93Zm.64,2.66-.72-.65a2.81,2.81,0,0,1-2,.81,2.17,2.17,0,0,1-2.32-1.93h5.46c.24-2.56-1.25-3.77-3.22-3.77a3.34,3.34,0,1,0,.06,6.68,3.7,3.7,0,0,0,2.77-1.14Zm-13.39-5.39,2.72,6.43H274l2.7-6.43h-1.17l-1,2.52-1.08,2.77-1.09-2.78-1-2.51Zm-2.39,0h1.06V412H267.7Zm-.16-1.94a.7.7,0,0,0,1.4,0,.7.7,0,0,0-1.4,0m-3.2.1-1.06.11v1.77H262v.91h1.29v3.39c0,1.42.65,2.22,2,2.2a3.2,3.2,0,0,0,1.25-.31l-.31-.89a2,2,0,0,1-.9.24c-.76,0-1-.48-1-1.24v-3.39h2v-.91h-2Zm-3.16,7.43-.71-.71a2.35,2.35,0,0,1-1.68.67,2.18,2.18,0,0,1-2.29-2.31,2.21,2.21,0,0,1,2.3-2.32,2.35,2.35,0,0,1,1.63.65l.67-.7a3.19,3.19,0,0,0-2.32-1,3.33,3.33,0,1,0,0,6.65,3.26,3.26,0,0,0,2.39-1Zm-7.85-2.83h-4.44a2.19,2.19,0,0,1,2.27-1.92,1.94,1.94,0,0,1,2.17,1.93Zm.64,2.66-.72-.65a2.81,2.81,0,0,1-2,.81,2.17,2.17,0,0,1-2.32-1.93h5.46c.24-2.56-1.25-3.77-3.22-3.77a3.34,3.34,0,1,0,.06,6.68,3.7,3.7,0,0,0,2.77-1.14Zm-8.76-5.41h1v7.28c0,1.46-.47,2.36-1.9,2.36a2.37,2.37,0,0,1-1.27-.37l.35-.85a2,2,0,0,0,.87.22c.78,0,.88-.56.88-1.36v-7.28Zm-.17-2a.7.7,0,0,0,1.4,0,.7.7,0,1,0-1.4,0m-4.73,2.88a2.33,2.33,0,0,1,0,4.66,2.33,2.33,0,0,1,0-4.66M238,402.87h-1.07V412h1l0-1.17a2.7,2.7,0,0,0,2.39,1.28,3.33,3.33,0,0,0,0-6.65,2.7,2.7,0,0,0-2.4,1.29Zm-3.65,5.9a2.24,2.24,0,0,1-2.29,2.32,2.21,2.21,0,0,1-2.27-2.32,2.28,2.28,0,1,1,4.56,0m-5.62,0A3.34,3.34,0,1,0,232,405.4a3.23,3.23,0,0,0-3.33,3.37" transform="translate(-67 -9)"/><path class="cls-11" d="M315.48,392.68H311a2.2,2.2,0,0,1,2.28-1.92,1.94,1.94,0,0,1,2.17,1.93Zm.63,2.66-.71-.65a2.81,2.81,0,0,1-2,.81,2.18,2.18,0,0,1-2.33-1.93h5.46c.25-2.56-1.25-3.76-3.21-3.76a3.34,3.34,0,1,0,.05,6.68,3.71,3.71,0,0,0,2.77-1.15ZM307,388.08l-1.06.11V390h-1.29v.91h1.29v3.39c0,1.42.65,2.23,2,2.2a3.2,3.2,0,0,0,1.25-.31l-.31-.89a2,2,0,0,1-.9.24c-.77,0-1-.48-1-1.24v-3.39h2V390h-2Zm-7.14,2.76c3.08,0,3.08,4.71,0,4.71a2.35,2.35,0,0,1,0-4.69Zm2.36,5.53h1V390h-1l0,1.17a2.71,2.71,0,0,0-2.38-1.28,3.34,3.34,0,0,0,0,6.68,2.73,2.73,0,0,0,2.37-1.29l0,1.16ZM285,390v6.42H286v-3.64a1.76,1.76,0,0,1,1.74-1.89,1.74,1.74,0,0,1,1.73,1.89v3.64h1.07v-3.64a1.77,1.77,0,0,1,1.75-1.89A1.68,1.68,0,0,1,294,392.7v3.67H295V392.7a2.58,2.58,0,0,0-2.7-2.86,2.39,2.39,0,0,0-2.26,1.41,2.15,2.15,0,0,0-2.16-1.41,2.06,2.06,0,0,0-1.9,1.06L286,390h-1Zm-3,0H283v6.45h-1.06Zm-.16-1.93a.7.7,0,0,0,1.4,0,.7.7,0,1,0-1.4,0m-3.2.09-1.06.11V390h-1.29v.91h1.29v3.39c0,1.42.65,2.23,2,2.2a3.2,3.2,0,0,0,1.25-.31l-.31-.89a2,2,0,0,1-.9.24c-.76,0-1-.48-1-1.24v-3.39h2V390h-2Zm-3.83-.81h-1.07v9.1h1.07Zm-4.08,9.1h1V390h-1.06v3.44a2,2,0,0,1-2,2.1,1.83,1.83,0,0,1-1.95-2V390H265.6v3.55a2.7,2.7,0,0,0,2.79,3,2.67,2.67,0,0,0,2.24-1.13l.05,1ZM255.08,393a2.34,2.34,0,1,1,2.35,2.23,2.18,2.18,0,0,1-2.35-2.23m0,4.47h-1c0,1.73,1.35,2.74,3.28,2.74,1.71,0,3.36-.84,3.36-2.51a2.13,2.13,0,0,0-1.77-2.09,2.63,2.63,0,0,0,1.81-2.61,2.88,2.88,0,0,0-.83-2.08l.72-.86-.75-.6-.69.83a3.54,3.54,0,0,0-1.82-.48A3.2,3.2,0,0,0,254,393a3.06,3.06,0,0,0,3.39,3.17c1.2,0,2.25.5,2.25,1.55s-1.16,1.52-2.26,1.52-2.28-.52-2.28-1.77m-8.62-7.5v6.42h1.06v-3.45a2,2,0,0,1,2-2.09,1.83,1.83,0,0,1,2,2v3.54h1.07v-3.55a2.73,2.73,0,0,0-2.82-3,2.62,2.62,0,0,0-2.2,1.12l0-1h-1Zm-3,0h1.06v6.45H243.5Zm-.16-1.93a.7.7,0,0,0,1.4,0,.7.7,0,1,0-1.4,0m-7.76,2,2.72,6.43h1.17l2.7-6.43H241l-1,2.52-1.08,2.77-1.09-2.78-1-2.51Zm-1.65,2.73h-4.45a2.2,2.2,0,0,1,2.28-1.92,1.94,1.94,0,0,1,2.17,1.93Zm.64,2.66-.72-.65a2.81,2.81,0,0,1-2,.81,2.18,2.18,0,0,1-2.33-1.93h5.46c.25-2.56-1.24-3.76-3.21-3.76a3.34,3.34,0,1,0,.05,6.68,3.69,3.69,0,0,0,2.77-1.15Zm-8.78-5.42h1.07v6.45h-1.07Zm-.15-1.93a.7.7,0,0,0,1.4,0,.7.7,0,1,0-1.4,0m-6.62-.72H218v9.1H219V393a2,2,0,0,1,2-2.09c1.17,0,1.82.71,1.82,2v3.52h1.05v-3.54c0-1.77-.88-3-2.69-3A2.56,2.56,0,0,0,219,391v-3.73Zm-2.41,8.24-.71-.71a2.35,2.35,0,0,1-1.68.67,2.18,2.18,0,0,1-2.29-2.31,2.21,2.21,0,0,1,2.3-2.32,2.35,2.35,0,0,1,1.63.65l.67-.7a3.19,3.19,0,0,0-2.32-1,3.33,3.33,0,1,0,0,6.66,3.27,3.27,0,0,0,2.39-1Zm-10.68-4.67c3.08,0,3.08,4.71,0,4.71a2.35,2.35,0,0,1,0-4.69Zm2.35,5.53h1V390h-1v1.17a2.71,2.71,0,0,0-2.38-1.28,3.34,3.34,0,0,0,0,6.68,2.72,2.72,0,0,0,2.37-1.29l0,1.16Z" transform="translate(-67 -9)"/><path class="cls-11" d="M304.77,374.35v6.42h1.05v-3.45a2,2,0,0,1,2-2.09,1.82,1.82,0,0,1,1.95,2v3.54h1.07v-3.55a2.73,2.73,0,0,0-2.82-3,2.62,2.62,0,0,0-2.2,1.12l-.05-1h-1Zm-3,0h1.06v6.45h-1.06Zm-.16-1.94a.71.71,0,0,0,1.41,0,.71.71,0,0,0-1.41,0m-5.66,4.7h-4.45a2.19,2.19,0,0,1,2.27-1.92,2,2,0,0,1,2.18,1.93Zm.63,2.66-.71-.65a2.83,2.83,0,0,1-2,.81,2.18,2.18,0,0,1-2.33-1.93h5.46c.25-2.56-1.25-3.77-3.21-3.77a3.34,3.34,0,1,0,0,6.68,3.7,3.7,0,0,0,2.77-1.14Zm-13.39-5.39,2.72,6.43h1.17l2.7-6.43h-1.17l-1,2.52-1.08,2.77-1.09-2.78-1-2.51Zm-2.39,0h1.07v6.45h-1.07Zm-.15-1.94a.7.7,0,0,0,1.4,0,.7.7,0,0,0-1.4,0m-3.2.1-1.07.11v1.77h-1.29v.91h1.29v3.39c0,1.42.65,2.22,2,2.2a3.2,3.2,0,0,0,1.25-.31l-.32-.89a2,2,0,0,1-.89.24c-.77,0-1-.48-1-1.24v-3.39h2v-.91h-2Zm-3.16,7.43-.72-.71a2.32,2.32,0,0,1-1.68.67,2.18,2.18,0,0,1-2.28-2.31,2.2,2.2,0,0,1,2.3-2.32,2.33,2.33,0,0,1,1.62.65l.68-.7a3.23,3.23,0,0,0-2.33-1,3.33,3.33,0,1,0,0,6.65,3.25,3.25,0,0,0,2.39-1Zm-7.85-2.83H262a2.19,2.19,0,0,1,2.27-1.92,2,2,0,0,1,2.18,1.93Zm.63,2.66-.71-.65a2.83,2.83,0,0,1-2,.81A2.18,2.18,0,0,1,262,378h5.46c.25-2.56-1.25-3.77-3.21-3.77a3.34,3.34,0,1,0,0,6.68,3.7,3.7,0,0,0,2.77-1.14Zm-9.88,1h1.07v-5.41h2v-.93h-2v-.51c0-1,.44-1.39,1.13-1.39a1.81,1.81,0,0,1,1,.32l.44-.79a2.59,2.59,0,0,0-1.46-.47,2.06,2.06,0,0,0-2.15,2.33v.51h-1.26v.93h1.26v5.42Zm-5,0h1.06v-5.41h2v-.93h-2v-.51c0-1,.44-1.39,1.13-1.39a1.79,1.79,0,0,1,1,.32l.44-.79a2.56,2.56,0,0,0-1.45-.47,2.06,2.06,0,0,0-2.16,2.33v.51H251v.93h1.26v5.42Zm-3.2-3.69h-4.45a2.2,2.2,0,0,1,2.28-1.92,1.94,1.94,0,0,1,2.17,1.93Zm.64,2.66-.72-.65a2.81,2.81,0,0,1-2,.81,2.18,2.18,0,0,1-2.33-1.93H250c.25-2.56-1.25-3.77-3.21-3.77a3.34,3.34,0,1,0,.05,6.68,3.7,3.7,0,0,0,2.77-1.14ZM236,374.35v6.42H237v-3.45a2,2,0,0,1,2-2.09,1.83,1.83,0,0,1,2,2v3.54H242v-3.55a2.73,2.73,0,0,0-2.82-3,2.62,2.62,0,0,0-2.2,1.12l0-1h-1Zm-3,0H234v6.45H233Zm-.16-1.94a.7.7,0,0,0,1.4,0,.7.7,0,0,0-1.4,0m-6.53.1-1.06.11v1.77h-1.29v.91h1.29v3.39c0,1.42.65,2.22,2,2.2a3.11,3.11,0,0,0,1.24-.31l-.31-.89a2,2,0,0,1-.89.24c-.77,0-1-.48-1-1.24v-3.39h2v-.91h-2Zm-4.74,8.29h1v-6.42h-1.07v3.44a2,2,0,0,1-2,2.1,1.82,1.82,0,0,1-2-2v-3.53h-1.07v3.55a2.7,2.7,0,0,0,2.8,3,2.66,2.66,0,0,0,2.23-1.13l.05,1Zm-9.87-5.54a2.33,2.33,0,0,1,0,4.66,2.33,2.33,0,0,1,0-4.66m-2.32-3.56h-1.07v9.1h1l.06-1.17a2.69,2.69,0,0,0,2.39,1.28,3.33,3.33,0,0,0,0-6.65,2.7,2.7,0,0,0-2.4,1.29Z" transform="translate(-67 -9)"/><path class="cls-11" d="M315.15,365.21l-.33,1.17h.72c.25-.83.55-1.63.55-1.74a.7.7,0,0,0-1.39,0,.56.56,0,0,0,.46.57Zm-4.3-6.46h-1v6.42h1.06v-3.58a1.85,1.85,0,0,1,1.89-1.92,1.89,1.89,0,0,1,1.12.35l.48-.91a2.45,2.45,0,0,0-1.5-.48,2.06,2.06,0,0,0-2,1.07l-.08-1Zm-6.31.89c3.08,0,3.08,4.71,0,4.71a2.35,2.35,0,0,1,0-4.69Zm2.35,5.53h1v-6.42h-1v1.17a2.69,2.69,0,0,0-2.38-1.28,3.34,3.34,0,0,0,0,6.68,2.71,2.71,0,0,0,2.37-1.3l0,1.17Zm-7.33-9.1h-1.07v9.1h1.07Zm-4.08,9.1h1v-6.42H295.4v3.44a2,2,0,0,1-2,2.1,1.83,1.83,0,0,1-1.95-2v-3.53h-1.06v3.55a2.7,2.7,0,0,0,2.79,3,2.67,2.67,0,0,0,2.24-1.13l.05,1Zm-9.86-.86a2.23,2.23,0,0,1-2.25-2.31,2.19,2.19,0,0,1,2.25-2.3,2.14,2.14,0,0,1,2.27,2.3,2.17,2.17,0,0,1-2.27,2.31m-3.4,3.89h1V364a2.73,2.73,0,0,0,2.43,1.3,3.33,3.33,0,0,0,.06-6.65,2.84,2.84,0,0,0-2.47,1.35l0-1.24h-1ZM279.63,362a2.28,2.28,0,1,1-2.28-2.39,2.23,2.23,0,0,1,2.28,2.39M274,362a3.34,3.34,0,1,0,3.33-3.36A3.21,3.21,0,0,0,274,362m-4.46,2.34a2.22,2.22,0,0,1-2.24-2.31,2.18,2.18,0,0,1,2.24-2.3,2.14,2.14,0,0,1,2.27,2.3,2.17,2.17,0,0,1-2.27,2.31m-3.4,3.89h1V364a2.74,2.74,0,0,0,2.43,1.3,3.33,3.33,0,0,0,.06-6.65,2.84,2.84,0,0,0-2.47,1.35l0-1.24h-1Zm-4.29-9.45h-1.17l-1.42,3.35-.69,1.82-.7-1.83-1.26-3.34h-1.21l2.59,6.33-1.34,3.12h1.14ZM254,356.07H252.9v9.1H254Zm-2.5,8.24-.71-.71a2.31,2.31,0,0,1-1.68.67,2.18,2.18,0,0,1-2.29-2.31,2.21,2.21,0,0,1,2.3-2.32,2.37,2.37,0,0,1,1.63.65l.67-.7a3.33,3.33,0,1,0-2.32,5.7,3.27,3.27,0,0,0,2.39-1Zm-8.37-5.59h1.07v6.45H243.1Zm-.16-1.93a.71.71,0,0,0,1.41,0,.71.71,0,0,0-1.41,0m-1.87-.72H240v9.1h1.06Zm-6,3.56a2.33,2.33,0,0,1,0,4.66,2.33,2.33,0,0,1,0-4.66m-2.33-3.56h-1.06v9.1h1l.05-1.17a2.72,2.72,0,0,0,2.4,1.29,3.33,3.33,0,0,0,0-6.66,2.73,2.73,0,0,0-2.41,1.29Zm-4,9.1h1v-6.42h-1.07v3.44a2,2,0,0,1-2,2.1,1.83,1.83,0,0,1-2-2v-3.53h-1.06v3.55a2.7,2.7,0,0,0,2.79,3,2.67,2.67,0,0,0,2.24-1.13l.05,1Zm-9.85-.86a2.23,2.23,0,0,1-2.25-2.31,2.19,2.19,0,0,1,2.25-2.3,2.14,2.14,0,0,1,2.26,2.3,2.17,2.17,0,0,1-2.26,2.31m-3.41,3.89h1V364a2.74,2.74,0,0,0,2.43,1.3,3.33,3.33,0,0,0,.07-6.65,2.85,2.85,0,0,0-2.48,1.35l0-1.24h-1ZM208.52,361v1.67c0,1.25-1.42,1.64-2.26,1.64-1.43,0-2.33-.62-2.33-1.7,0-.76.76-1.61,2.3-1.61Zm-.17-2.59h1.07c0-1.91-1.59-2.39-3.11-2.39-1.87,0-3.33.91-3.33,2.56a2.11,2.11,0,0,0,1.47,2,2.31,2.31,0,0,0-1.64,2.08c0,1.87,1.37,2.69,3.47,2.69a2.83,2.83,0,0,0,2.64-1.24,1.44,1.44,0,0,0,1.61,1.13v-1c-.76,0-1-.72-1-1.5V361h.8v-.92h-4c-.88,0-2.21-.35-2.22-1.54,0-.8.63-1.58,2.19-1.58,1.08,0,2.07.26,2.07,1.41Z" transform="translate(-67 -9)"/><path class="cls-11" d="M291.77,345.88h-4.44A2.18,2.18,0,0,1,289.6,344a1.94,1.94,0,0,1,2.17,1.92Zm.64,2.66-.72-.65a2.8,2.8,0,0,1-2,.81,2.17,2.17,0,0,1-2.32-1.93h5.46c.24-2.56-1.25-3.76-3.21-3.76a3.34,3.34,0,1,0,.05,6.68,3.71,3.71,0,0,0,2.77-1.15Zm-7.79-8.07h-1.06v9.1h1.06Zm-6,3.56a2.33,2.33,0,0,1,0,4.66,2.33,2.33,0,0,1,0-4.66m-2.33-3.56H275.2v9.1h1l.05-1.17a2.72,2.72,0,0,0,2.4,1.29,3.33,3.33,0,0,0,0-6.66,2.73,2.73,0,0,0-2.41,1.29ZM269.87,344c3.08,0,3.08,4.71,0,4.71a2.35,2.35,0,0,1,0-4.69Zm2.35,5.53h1v-6.42h-1v1.17a2.71,2.71,0,0,0-2.38-1.28,3.34,3.34,0,0,0,0,6.68,2.72,2.72,0,0,0,2.37-1.29l0,1.16Zm-12.93-6.42,2.71,6.43h1.17l2.71-6.43h-1.17l-1,2.52-1.08,2.77-1.09-2.78-1-2.51Zm-1.66,2.73h-4.44a2.19,2.19,0,0,1,2.27-1.91,1.94,1.94,0,0,1,2.17,1.92Zm.64,2.66-.71-.65a2.83,2.83,0,0,1-2,.81,2.18,2.18,0,0,1-2.33-1.93h5.46c.25-2.56-1.25-3.76-3.21-3.76a3.34,3.34,0,1,0,.05,6.68,3.71,3.71,0,0,0,2.77-1.15Zm-8.77-5.42h1.06v6.45H249.5Zm-.16-1.93a.7.7,0,0,0,1.4,0,.7.7,0,1,0-1.4,0m-6.62-.72h-1.05v9.1h1.07v-3.41a2,2,0,0,1,2-2.09c1.18,0,1.83.71,1.83,2v3.52h1V346c0-1.77-.89-3-2.69-3a2.58,2.58,0,0,0-2.23,1.14v-3.73Zm-2.4,8.24-.72-.71a2.27,2.27,0,0,1-1.67.67,2.18,2.18,0,0,1-2.29-2.31,2.2,2.2,0,0,1,2.3-2.32,2.33,2.33,0,0,1,1.62.65l.68-.7a3.23,3.23,0,0,0-2.33-1,3.33,3.33,0,1,0,0,6.66,3.24,3.24,0,0,0,2.39-1ZM229.63,344c3.08,0,3.08,4.71,0,4.71a2.35,2.35,0,0,1,0-4.69Zm2.36,5.53h1v-6.42h-1v1.17a2.71,2.71,0,0,0-2.38-1.28,3.34,3.34,0,0,0,0,6.68,2.7,2.7,0,0,0,2.36-1.29l0,1.16Z" transform="translate(-67 -9)"/><path class="cls-11" d="M289,327.55h-1.17l-1.42,3.35-.69,1.82-.7-1.83-1.26-3.34h-1.21l2.59,6.33L283.76,337h1.14Zm-7.89-2.68H280V334h1.07Zm-3.18,0h-1.06V334h1.06Zm-6.47,3.57c3.08,0,3.08,4.71,0,4.71a2.35,2.35,0,0,1,0-4.69Zm2.35,5.53h1v-6.42h-1v1.17a2.71,2.71,0,0,0-2.38-1.28,3.34,3.34,0,0,0,0,6.68,2.7,2.7,0,0,0,2.36-1.29l0,1.16Zm-6.51-.86-.71-.71a2.31,2.31,0,0,1-1.68.67,2.18,2.18,0,0,1-2.29-2.31,2.21,2.21,0,0,1,2.3-2.32,2.37,2.37,0,0,1,1.63.65l.67-.7a3.33,3.33,0,1,0-2.32,5.7,3.27,3.27,0,0,0,2.39-1Zm-8.37-5.59H260V334h-1.06Zm-.16-1.93a.71.71,0,0,0,1.41,0,.71.71,0,0,0-1.41,0m-3.2.09-1.06.11v1.77h-1.29v.91h1.29v3.39c0,1.42.65,2.23,2,2.2a3.11,3.11,0,0,0,1.24-.31l-.31-.88a2.1,2.1,0,0,1-.89.23c-.77,0-1-.48-1-1.24v-3.39h2v-.91h-2Zm-4.82,1.84h1.07V334h-1.07Zm-.15-1.93a.7.7,0,0,0,1.4,0,.7.7,0,1,0-1.4,0m-1.88-.72h-1.06V334h1.06Zm-3.73,5.9a2.28,2.28,0,1,1-2.27-2.39,2.23,2.23,0,0,1,2.27,2.39m-5.61,0a3.34,3.34,0,1,0,3.33-3.37,3.2,3.2,0,0,0-3.33,3.37M235.4,330h-3v-4.06h3a2,2,0,0,1,0,4.06m-3,1h3a3.08,3.08,0,1,0,0-6.16h-4.13V334h1.11Z" transform="translate(-67 -9)"/><path class="cls-11" d="M565.74,406.84c3.09,0,3.09,4.71,0,4.71a2.35,2.35,0,0,1,0-4.69Zm2.36,5.53h1V406h-1v1.17a2.71,2.71,0,0,0-2.38-1.28,3.34,3.34,0,0,0,0,6.68,2.73,2.73,0,0,0,2.37-1.29l0,1.16Zm-10.33-5.55a2.33,2.33,0,0,1,0,4.65,2.33,2.33,0,0,1,0-4.65Zm3.38-3.55h-1v3.85a2.7,2.7,0,0,0-2.4-1.29,3.33,3.33,0,0,0,0,6.66,2.74,2.74,0,0,0,2.41-1.3l0,1.17h1v-9.1ZM547.27,406v6.42h1.05v-3.45a2,2,0,0,1,2-2.09,1.83,1.83,0,0,1,2,2v3.54h1.07v-3.55a2.73,2.73,0,0,0-2.83-3A2.62,2.62,0,0,0,548.3,407l0-1h-1Zm-2.17,2.73h-4.45a2.19,2.19,0,0,1,2.28-1.91,1.94,1.94,0,0,1,2.17,1.92Zm.64,2.66-.72-.65a2.81,2.81,0,0,1-2,.81,2.18,2.18,0,0,1-2.33-1.93h5.46c.25-2.56-1.24-3.76-3.21-3.76a3.34,3.34,0,1,0,.06,6.68,3.68,3.68,0,0,0,2.76-1.15ZM533,409a2.34,2.34,0,1,1,2.36,2.23A2.19,2.19,0,0,1,533,409m.06,4.47h-1c0,1.73,1.35,2.74,3.29,2.74,1.7,0,3.35-.84,3.35-2.51a2.13,2.13,0,0,0-1.77-2.09,2.63,2.63,0,0,0,1.81-2.61,2.88,2.88,0,0,0-.83-2.08l.73-.86-.76-.6-.69.83a3.51,3.51,0,0,0-1.82-.48A3.2,3.2,0,0,0,532,409a3.06,3.06,0,0,0,3.39,3.17c1.2,0,2.25.5,2.25,1.55s-1.15,1.52-2.26,1.52-2.27-.52-2.27-1.77m-5.72-6.61c3.08,0,3.08,4.71,0,4.71a2.35,2.35,0,0,1,0-4.69Zm2.35,5.53h1V406h-1l0,1.17a2.7,2.7,0,0,0-2.38-1.28,3.34,3.34,0,0,0,0,6.68,2.73,2.73,0,0,0,2.37-1.29l0,1.16Zm-10-9.1h-1.07v9.1h1.07Zm-6.15,3.57c3.08,0,3.08,4.71,0,4.71a2.35,2.35,0,0,1,0-4.69Zm2.35,5.53h1V406h-1v1.17a2.71,2.71,0,0,0-2.38-1.28,3.34,3.34,0,0,0,0,6.68,2.72,2.72,0,0,0,2.36-1.29l0,1.16Zm-6.19-.86-.71-.71a2.31,2.31,0,0,1-1.68.67,2.18,2.18,0,0,1-2.29-2.31,2.21,2.21,0,0,1,2.3-2.32,2.33,2.33,0,0,1,1.63.65l.68-.7a3.23,3.23,0,0,0-2.33-1,3.33,3.33,0,1,0,0,6.66,3.27,3.27,0,0,0,2.39-1Zm-8-5.59h1.06v6.45h-1.06Zm-.16-1.93a.71.71,0,0,0,1.41,0,.71.71,0,0,0-1.41,0m-2.87.09-1.07.11V406h-1.28v.91h1.28v3.39c0,1.42.65,2.23,2,2.2a3.2,3.2,0,0,0,1.25-.31l-.31-.88a2.18,2.18,0,0,1-.9.23c-.77,0-1-.48-1-1.24v-3.39h2V406h-2Zm-4.5,1.84h1.07v6.45h-1.07ZM494,404a.7.7,0,0,0,1.4,0,.7.7,0,1,0-1.4,0m-1.55-.72h-1.07v9.1h1.07Zm-3.41,5.9a2.28,2.28,0,1,1-2.27-2.39,2.23,2.23,0,0,1,2.27,2.39m-5.61,0a3.33,3.33,0,1,0,3.32-3.36,3.2,3.2,0,0,0-3.32,3.36m-4.14,2.34A2.23,2.23,0,0,1,477,409.2a2.19,2.19,0,0,1,2.25-2.3,2.14,2.14,0,0,1,2.27,2.3,2.17,2.17,0,0,1-2.27,2.31m-3.4,3.89h1v-4.19a2.73,2.73,0,0,0,2.43,1.3,3.33,3.33,0,0,0,.06-6.65,2.84,2.84,0,0,0-2.47,1.35l-.05-1.24h-1Z" transform="translate(-67 -9)"/><path class="cls-11" d="M586.74,393.08h-4.45a2.2,2.2,0,0,1,2.28-1.92,1.94,1.94,0,0,1,2.17,1.93Zm.64,2.66-.72-.65a2.81,2.81,0,0,1-2,.81,2.18,2.18,0,0,1-2.33-1.93h5.46c.25-2.56-1.24-3.77-3.21-3.77a3.34,3.34,0,1,0,.05,6.68,3.68,3.68,0,0,0,2.77-1.14Zm-12.21-8.07h-1v9.1h1.06v-3.41a2,2,0,0,1,2-2.09,1.72,1.72,0,0,1,1.82,2v3.53h1.05v-3.54c0-1.77-.88-3-2.69-3a2.56,2.56,0,0,0-2.22,1.14v-3.73Zm-4.08.81-1.07.11v1.77h-1.28v.91H570v3.39c0,1.42.65,2.22,2,2.2a3.2,3.2,0,0,0,1.25-.31l-.32-.89a2,2,0,0,1-.89.24c-.77,0-1-.48-1-1.24v-3.39h2v-.91h-2Zm-11-.81H559v9.1h1.07v-3.41a2,2,0,0,1,2-2.09,1.72,1.72,0,0,1,1.82,2v3.53h1v-3.54c0-1.77-.88-3-2.69-3a2.56,2.56,0,0,0-2.22,1.14v-3.73Zm-4.09.81-1.06.11v1.77h-1.29v.91h1.29v3.39c0,1.42.65,2.22,2,2.2a3.11,3.11,0,0,0,1.24-.31l-.31-.89a2,2,0,0,1-.89.24c-.77,0-1-.48-1-1.24v-3.39h2v-.91h-2Zm-4.49,1.84h1.06v6.45H551.5Zm-.16-1.94a.7.7,0,0,0,1.4,0,.7.7,0,0,0-1.4,0m-11,2,2.28,6.43h1.21l.87-2.39.7-2.34.69,2.34.87,2.39h1.22l2.25-6.43h-1.17l-1.73,5.29-1.7-5.29H545l-1.7,5.29-1.73-5.29Zm-4.69-.23h.87l.87-2.46h-1.14Zm-1.9,0h.89l.87-2.46h-1.15Zm-1.74,3h-4.45a2.2,2.2,0,0,1,2.28-1.92,1.94,1.94,0,0,1,2.17,1.93Zm.64,2.66-.72-.65a2.81,2.81,0,0,1-2,.81,2.18,2.18,0,0,1-2.33-1.93H533c.25-2.56-1.24-3.77-3.21-3.77a3.34,3.34,0,1,0,.05,6.68,3.68,3.68,0,0,0,2.77-1.14Zm-12.72-2.36a2.34,2.34,0,1,1,2.36,2.23,2.2,2.2,0,0,1-2.36-2.23m.05,4.47h-1c0,1.73,1.35,2.74,3.29,2.74,1.7,0,3.35-.84,3.35-2.51a2.13,2.13,0,0,0-1.77-2.09,2.63,2.63,0,0,0,1.81-2.61,2.93,2.93,0,0,0-.83-2.09l.73-.85-.76-.6-.69.83a3.51,3.51,0,0,0-1.82-.48,3.2,3.2,0,0,0-3.39,3.19,3.06,3.06,0,0,0,3.39,3.17c1.2,0,2.25.5,2.25,1.54s-1.15,1.53-2.26,1.53-2.28-.52-2.28-1.77m-5.71-6.61c3.08,0,3.08,4.71,0,4.71a2.35,2.35,0,0,1,0-4.69Zm2.35,5.53h1v-6.42h-1l0,1.17a2.68,2.68,0,0,0-2.38-1.28,3.34,3.34,0,0,0,0,6.68,2.73,2.73,0,0,0,2.37-1.29l0,1.16Zm-7.33-5,.61-.7a3.44,3.44,0,0,0-2.45-.86c-1.23,0-2.61.52-2.6,1.89s1.33,1.69,2.56,1.84c1,.12,1.75.33,1.73,1s-.92,1-1.62,1a3,3,0,0,1-2.29-1l-.61.74a3.49,3.49,0,0,0,2.87,1.2c1.45,0,2.67-.63,2.69-1.92,0-1.59-1.53-1.82-2.7-2-.81-.09-1.59-.29-1.6-1s.7-.95,1.59-.94a2.45,2.45,0,0,1,1.8.63Zm-6.17,0,.61-.7a3.42,3.42,0,0,0-2.44-.86c-1.23,0-2.61.52-2.6,1.89s1.33,1.69,2.56,1.84c1,.12,1.75.33,1.73,1s-.92,1-1.62,1a3,3,0,0,1-2.29-1l-.61.74a3.49,3.49,0,0,0,2.87,1.2c1.44,0,2.66-.63,2.69-1.92,0-1.59-1.53-1.82-2.7-2-.81-.09-1.59-.29-1.6-1s.7-.95,1.58-.94a2.46,2.46,0,0,1,1.81.63Zm-6.3,1.32h-4.45a2.2,2.2,0,0,1,2.28-1.92,1.94,1.94,0,0,1,2.17,1.93Zm.64,2.66-.72-.65a2.81,2.81,0,0,1-2,.81,2.18,2.18,0,0,1-2.33-1.93h5.46c.25-2.56-1.24-3.77-3.21-3.77a3.34,3.34,0,1,0,.05,6.68,3.68,3.68,0,0,0,2.77-1.14Zm-17.4-5.39v6.42h1.07v-3.64a1.76,1.76,0,0,1,1.74-1.89,1.74,1.74,0,0,1,1.73,1.89v3.64h1.06v-3.64a1.77,1.77,0,0,1,1.76-1.89,1.68,1.68,0,0,1,1.67,1.86v3.67h1.06V393.1a2.58,2.58,0,0,0-2.7-2.86,2.42,2.42,0,0,0-2.27,1.41,2.13,2.13,0,0,0-2.15-1.41,2.07,2.07,0,0,0-1.9,1.05l-.07-.93h-1Zm-10.58,0v6.42h1v-3.45a2,2,0,0,1,2-2.09,1.83,1.83,0,0,1,1.95,2v3.54h1.06v-3.55a2.72,2.72,0,0,0-2.82-3,2.62,2.62,0,0,0-2.19,1.12l-.06-1h-1Zm-2.26,3.22a2.28,2.28,0,1,1-2.28-2.39,2.23,2.23,0,0,1,2.28,2.39m-5.62,0a3.34,3.34,0,1,0,3.33-3.37,3.2,3.2,0,0,0-3.33,3.37m-.53-5.87h-.88l-.89,2.5h1.15Zm-1.9,0h-.87l-.88,2.5h1.14Z" transform="translate(-67 -9)"/><path class="cls-11" d="M577.62,372.88l-1.07.11v1.77h-1.28v.91h1.28v3.39c0,1.42.65,2.22,2,2.2a3.2,3.2,0,0,0,1.25-.31l-.31-.89a2,2,0,0,1-.9.24c-.77,0-1-.48-1-1.24v-3.39h2v-.91h-2ZM573.69,378a2.28,2.28,0,1,1-2.27-2.39,2.23,2.23,0,0,1,2.27,2.39m-5.61,0a3.34,3.34,0,1,0,3.33-3.37,3.19,3.19,0,0,0-3.33,3.37m-7.16-3.22v6.42H562v-3.45a2,2,0,0,1,2-2.09,1.82,1.82,0,0,1,1.95,2v3.54H567v-3.55a2.73,2.73,0,0,0-2.82-3,2.62,2.62,0,0,0-2.2,1.12l-.05-1h-1Zm-6-1.87-1.06.11v1.77h-1.29v.91h1.29v3.39c0,1.42.65,2.22,2,2.2a3.2,3.2,0,0,0,1.25-.31l-.31-.89a2,2,0,0,1-.9.24c-.76,0-1-.48-1-1.24v-3.39h2v-.91h-2Zm-4.42,8.29h1v-6.42h-1.06v3.44a2,2,0,0,1-2,2.1,1.83,1.83,0,0,1-1.95-2v-3.53h-1.07v3.55a2.7,2.7,0,0,0,2.8,3,2.65,2.65,0,0,0,2.23-1.13l.06,1Zm-9.54-5.54a2.33,2.33,0,0,1,0,4.66,2.33,2.33,0,0,1,0-4.66m-2.33-3.56h-1.06v9.1h1l.05-1.17a2.71,2.71,0,0,0,2.4,1.28,3.33,3.33,0,0,0,0-6.65,2.73,2.73,0,0,0-2.41,1.29Zm-6.51,9.14-.32,1.17h.71c.26-.84.56-1.63.56-1.75a.7.7,0,0,0-1.39,0,.56.56,0,0,0,.45.57Zm-2.34-5,.61-.7a3.43,3.43,0,0,0-2.44-.86c-1.24,0-2.61.52-2.6,1.89s1.32,1.69,2.56,1.84c1,.12,1.74.33,1.73,1s-.92,1-1.63,1a3,3,0,0,1-2.28-1l-.62.74a3.51,3.51,0,0,0,2.88,1.2c1.44,0,2.66-.63,2.69-1.92,0-1.59-1.54-1.82-2.71-2-.8-.09-1.58-.29-1.6-.95s.71-.95,1.59-.94a2.47,2.47,0,0,1,1.81.63Zm-8.38-1.41h-1v6.42h1.06v-3.58a1.85,1.85,0,0,1,1.89-1.92,1.89,1.89,0,0,1,1.12.35l.48-.91a2.45,2.45,0,0,0-1.5-.48,2.06,2.06,0,0,0-2,1.07l-.08-1Zm-3.16,2.73h-4.45a2.2,2.2,0,0,1,2.28-1.92,1.94,1.94,0,0,1,2.17,1.93Zm.63,2.66-.71-.65a2.81,2.81,0,0,1-2,.81,2.18,2.18,0,0,1-2.33-1.93h5.46c.25-2.56-1.25-3.77-3.21-3.77a3.34,3.34,0,1,0,0,6.68,3.7,3.7,0,0,0,2.77-1.14Zm-8.78-7.26L509,373v1.77h-1.29v.91H509v3.39c0,1.42.65,2.22,2,2.2a3.2,3.2,0,0,0,1.25-.31l-.32-.89a2,2,0,0,1-.89.24c-.77,0-1-.48-1-1.24v-3.39h2v-.91h-2ZM506.12,378a2.28,2.28,0,1,1-2.27-2.39,2.23,2.23,0,0,1,2.27,2.39m-5.62,0a3.34,3.34,0,1,0,3.33-3.37A3.2,3.2,0,0,0,500.5,378m-6.89-3.22,2.72,6.43h1.17l2.71-6.43H499l-1,2.52L496.92,380l-1.1-2.78-1-2.51Zm-8.47-2.68h-1.05v9.1h1.06v-3.41a2,2,0,0,1,2-2.09,1.72,1.72,0,0,1,1.82,2v3.53h1.05v-3.54c0-1.77-.88-3-2.69-3a2.56,2.56,0,0,0-2.22,1.14v-3.73Zm-4.08.81L480,373v1.77H478.7v.91H480v3.39c0,1.42.65,2.22,2,2.2a3.2,3.2,0,0,0,1.25-.31l-.32-.89a2,2,0,0,1-.89.24c-.77,0-1-.48-1-1.24v-3.39h2v-.91h-2Zm-4.5,1.84h1.06v6.45h-1.06Zm-.16-1.94a.71.71,0,0,0,1.41,0,.71.71,0,0,0-1.41,0m-11,2,2.28,6.43h1.21l.87-2.39.7-2.34.69,2.34.87,2.39h1.22l2.25-6.43h-1.17L472.59,380l-1.7-5.29H470l-1.7,5.29-1.73-5.29Z" transform="translate(-67 -9)"/><path class="cls-11" d="M580.25,361.88H575.8a2.19,2.19,0,0,1,2.27-1.91,1.94,1.94,0,0,1,2.18,1.92Zm.63,2.66-.71-.65a2.83,2.83,0,0,1-2,.81,2.18,2.18,0,0,1-2.33-1.93h5.46c.25-2.56-1.25-3.76-3.21-3.76a3.34,3.34,0,1,0,.05,6.68,3.71,3.71,0,0,0,2.77-1.15Zm-7.14-8.07h-1.06v9.1h1.06ZM568.36,360a2.33,2.33,0,0,1,0,4.66,2.33,2.33,0,0,1,0-4.66M566,356.47H565v9.1h1l.06-1.17a2.69,2.69,0,0,0,2.39,1.29,3.33,3.33,0,0,0,0-6.66,2.7,2.7,0,0,0-2.4,1.29Zm-3.43,2.65h1.06v6.45h-1.06Zm-.16-1.93a.7.7,0,0,0,1.4,0,.7.7,0,1,0-1.4,0m-1.55,3.37.61-.7a3.43,3.43,0,0,0-2.44-.85c-1.24,0-2.61.51-2.6,1.88s1.32,1.69,2.56,1.85c1,.11,1.74.32,1.73,1s-.92,1-1.63,1a3,3,0,0,1-2.28-1l-.61.74a3.48,3.48,0,0,0,2.87,1.2c1.44,0,2.66-.63,2.69-1.92,0-1.58-1.53-1.82-2.71-2-.8-.09-1.58-.29-1.6-.95s.71-.95,1.59-.94a2.47,2.47,0,0,1,1.81.63Zm-5.83,0,.61-.7a3.45,3.45,0,0,0-2.45-.85c-1.23,0-2.61.51-2.6,1.88s1.33,1.69,2.56,1.85c1,.11,1.75.32,1.73,1s-.92,1-1.62,1a3,3,0,0,1-2.29-1l-.61.74a3.49,3.49,0,0,0,2.87,1.2c1.44,0,2.66-.63,2.69-1.92,0-1.58-1.53-1.82-2.7-2-.81-.09-1.59-.29-1.6-.95s.7-.95,1.58-.94a2.46,2.46,0,0,1,1.81.63ZM549,362.37a2.28,2.28,0,1,1-2.27-2.39,2.23,2.23,0,0,1,2.27,2.39m-5.61,0a3.34,3.34,0,1,0,3.33-3.36,3.2,3.2,0,0,0-3.33,3.36m-3.81,2.34a2.23,2.23,0,0,1-2.25-2.31,2.19,2.19,0,0,1,2.25-2.3,2.14,2.14,0,0,1,2.26,2.3,2.17,2.17,0,0,1-2.26,2.31m-3.41,3.89h1v-4.19a2.74,2.74,0,0,0,2.43,1.3,3.33,3.33,0,0,0,.07-6.65,2.83,2.83,0,0,0-2.47,1.35l-.05-1.24h-1ZM528.79,360a2.33,2.33,0,0,1,0,4.65,2.33,2.33,0,0,1,0-4.65Zm3.38-3.55h-1v3.85a2.73,2.73,0,0,0-2.41-1.29,3.33,3.33,0,0,0,0,6.66,2.72,2.72,0,0,0,2.4-1.3l0,1.17h1v-9.1Zm-13.56,2.68v6.42h1.06v-3.45a2,2,0,0,1,2-2.09,1.83,1.83,0,0,1,2,2v3.54h1.07V362a2.73,2.73,0,0,0-2.82-3,2.62,2.62,0,0,0-2.2,1.12l0-1h-1Zm-4.68.89c3.08,0,3.08,4.71,0,4.71a2.35,2.35,0,0,1,0-4.69Zm2.36,5.53h1v-6.42h-1v1.17a2.71,2.71,0,0,0-2.38-1.28,3.34,3.34,0,0,0,0,6.68,2.7,2.7,0,0,0,2.36-1.29l0,1.16Zm-9.83-3.69H502a2.19,2.19,0,0,1,2.28-1.91,1.94,1.94,0,0,1,2.17,1.92Zm.64,2.66-.72-.65a2.81,2.81,0,0,1-2,.81,2.18,2.18,0,0,1-2.33-1.93h5.46c.25-2.56-1.25-3.76-3.21-3.76a3.34,3.34,0,1,0,.05,6.68,3.71,3.71,0,0,0,2.77-1.15ZM500,356.47h-1.07v9.1H500ZM494.58,360a2.33,2.33,0,0,1,0,4.66,2.33,2.33,0,0,1,0-4.66m-2.33-3.56h-1.07v9.1h1l.05-1.17a2.71,2.71,0,0,0,2.39,1.29,3.33,3.33,0,0,0,0-6.66,2.7,2.7,0,0,0-2.4,1.29Zm-3.43,2.65h1.06v6.45h-1.06Zm-.16-1.93a.7.7,0,0,0,1.4,0,.7.7,0,1,0-1.4,0m-1.54,3.37.61-.7a3.45,3.45,0,0,0-2.45-.85c-1.23,0-2.61.51-2.6,1.88s1.33,1.69,2.56,1.85c1,.11,1.75.32,1.73,1s-.92,1-1.62,1a3,3,0,0,1-2.29-1l-.61.74a3.49,3.49,0,0,0,2.87,1.2c1.44,0,2.66-.63,2.69-1.92,0-1.58-1.53-1.82-2.7-2-.81-.09-1.59-.29-1.6-.95s.7-.95,1.58-.94a2.46,2.46,0,0,1,1.81.63ZM478.3,360c3.08,0,3.08,4.71,0,4.71a2.35,2.35,0,0,1,0-4.69Zm2.35,5.53h1v-6.42h-1v1.17a2.71,2.71,0,0,0-2.38-1.28,3.34,3.34,0,0,0,0,6.68,2.7,2.7,0,0,0,2.36-1.29l0,1.16Zm-7.15-3.69h-4.44a2.18,2.18,0,0,1,2.27-1.91,1.94,1.94,0,0,1,2.17,1.92Zm.64,2.66-.71-.65a2.84,2.84,0,0,1-2.05.81,2.17,2.17,0,0,1-2.32-1.93h5.46c.24-2.56-1.25-3.76-3.21-3.76a3.34,3.34,0,1,0,.05,6.68,3.71,3.71,0,0,0,2.77-1.15Zm-9.23,1H466v-5.41h2v-.93h-2v-.51c0-1,.44-1.39,1.13-1.39a1.78,1.78,0,0,1,1,.32l.45-.79a2.61,2.61,0,0,0-1.46-.47,2.06,2.06,0,0,0-2.16,2.33v.51h-1.26v.93h1.26v5.42Z" transform="translate(-67 -9)"/><path class="cls-11" d="M554.56,343.55h-1.17L552,346.9l-.69,1.82-.7-1.83-1.27-3.34h-1.2l2.58,6.33L549.36,353h1.15ZM547,340.87h-1.07V350H547Zm-2.85,0h-1.06V350h1.06ZM538,344.44c3.08,0,3.08,4.71,0,4.71a2.35,2.35,0,0,1,0-4.69Zm2.36,5.53h1v-6.42h-1v1.17a2.71,2.71,0,0,0-2.38-1.28,3.34,3.34,0,0,0,0,6.68,2.7,2.7,0,0,0,2.36-1.29l0,1.16Zm-6.19-.86-.72-.71a2.32,2.32,0,0,1-1.68.67,2.18,2.18,0,0,1-2.28-2.31,2.2,2.2,0,0,1,2.3-2.32,2.33,2.33,0,0,1,1.62.65l.68-.7a3.23,3.23,0,0,0-2.33-1,3.33,3.33,0,1,0,0,6.65,3.25,3.25,0,0,0,2.39-1Zm-8-5.59h1.07V350h-1.07Zm-.15-1.94a.7.7,0,0,0,1.4,0,.7.7,0,0,0-1.4,0m-7.43,2V350h1.05v-3.45a2,2,0,0,1,2-2.09,1.83,1.83,0,0,1,1.95,2V350h1.07v-3.55a2.73,2.73,0,0,0-2.82-3,2.62,2.62,0,0,0-2.2,1.12l-.05-1h-1Zm-6.45-2.68H511V350h1.07v-3.41a2,2,0,0,1,2-2.09c1.18,0,1.83.71,1.83,2V350h1v-3.54c0-1.77-.89-3-2.69-3a2.58,2.58,0,0,0-2.23,1.14v-3.73ZM510,349.11l-.71-.71a2.35,2.35,0,0,1-1.68.67,2.18,2.18,0,0,1-2.29-2.31,2.21,2.21,0,0,1,2.3-2.32,2.35,2.35,0,0,1,1.63.65l.67-.7a3.19,3.19,0,0,0-2.32-1,3.33,3.33,0,1,0,0,6.65,3.26,3.26,0,0,0,2.39-1Zm-7.52-2.83H498a2.2,2.2,0,0,1,2.28-1.92,2,2,0,0,1,2.17,1.93Zm.63,2.66-.71-.65a2.81,2.81,0,0,1-2,.81,2.18,2.18,0,0,1-2.33-1.93h5.46c.25-2.56-1.25-3.77-3.21-3.77a3.34,3.34,0,1,0,0,6.68,3.7,3.7,0,0,0,2.77-1.14Zm-9.34-7.06V350h1.11v-8.09H498v-1h-7.33v1Z" transform="translate(-67 -9)"/></g></g></g></g></svg>